# xmcd
#
# Track frame offsets: 
#        150
#        14022
#        26402
#        38340
#        49167
#        61585
#        73760
#        84430
#        97705
#        110570
#        124922
#        145605
#        166885
#        179107
#        194967
#        208190
#        236317
#        250715
#        290677
#
# Disc length: 4068 seconds
#
# Revision: 7
# Processed by: cddbd v1.5.2PL0 Copyright (c) Steve Scherf et al.
# Submitted via: ExactAudioCopyFreeDBPlugin 1.0
#
DISCID=0c0fe213
DTITLE=Marvin Gaye - The Marvin Gaye Collection [box set]
DYEAR=1990
DGENRE=Soul
TTITLE0=Let Your Conscience By Your Guide
TTITLE1=Never Let You Go (Sha Loo Bop)
TTITLE2=It's Party Time
TTITLE3=The Christmas Song (Chestnuts Roasting on an Open Fire) (live 
TTITLE3=from The Apollo)
TTITLE4=Down and Under When You Limbo
TTITLE5=My Girl
TTITLE6=It's Not Unusual
TTITLE7=Sunny
TTITLE8=Sweeter as the Days Go By
TTITLE9=Sweet Thing
TTITLE10=I Love You Secretly (My Last Chance)
TTITLE11=I Want to Come Home for Christmas
TTITLE12=5, 10, 15, 20 Years of Love
TTITLE13=You're My Everything (I'd Give My Life for You)
TTITLE14=Come Get to This (live from the Oakland-Alameda County Colise
TTITLE14=um, 1974)
TTITLE15=Distant Lover (live from the Oakland-Alameda County Coliseum,
TTITLE15=1974)
TTITLE16=Jan (live from the Oakland-Alameda County Coliseum, 1974)
TTITLE17='60s Hits Medley (live from The London Palladium, 1977)
TTITLE18=Star Spangled Banner (from the 1983 NBA All-Star Game)
EXTD=
EXTT0=
EXTT1=
EXTT2=
EXTT3=
EXTT4=
EXTT5=
EXTT6=
EXTT7=
EXTT8=
EXTT9=
EXTT10=
EXTT11=
EXTT12=
EXTT13=
EXTT14=
EXTT15=
EXTT16=
EXTT17=
EXTT18=
PLAYORDER=
